<?xml version="1.0" encoding="UTF-8" standalone="no"?>
<svg
   width="85.146255"
   height="105.81095"
   viewBox="0 0 85.146255 105.81095"
   version="1.1"
   id="svg3"
   xmlns="http://www.w3.org/2000/svg"
   xmlns:svg="http://www.w3.org/2000/svg">
  <defs
     id="defs3" />
  <g
     id="surface1"
     transform="translate(-21.100323,-10.148847)">
    <path
       style="fill:none;stroke:#000000;stroke-width:2.5;stroke-linecap:round;stroke-linejoin:miter;stroke-miterlimit:4;stroke-opacity:1"
       d="m 16.272217,3.131104 1.174072,3.021972 c 0.199951,0.514893 -0.05566,1.094238 -0.569824,1.294922 l -3.022705,1.17334"
       transform="scale(5.333333)"
       id="path1" />
    <path
       style="fill:none;stroke:#000000;stroke-width:2.5;stroke-linecap:round;stroke-linejoin:miter;stroke-miterlimit:4;stroke-opacity:1"
       d="M 7.615723,20.510742 6.933838,17.34082 C 6.818115,16.801025 7.161621,16.269287 7.701416,16.152832 l 3.169922,-0.681152"
       transform="scale(5.333333)"
       id="path2" />
    <path
       style="fill:#000000;fill-opacity:1;fill-rule:evenodd;stroke:none"
       d="m 90.214844,41.960938 c 3.917968,-1.933594 5.117187,-6.996094 1.855468,-9.902344 C 87.929688,28.375 83,25.441406 77.421875,23.550781 c -22.3125,-7.574219 -46.539063,4.375 -54.113281,26.6875 -1.894532,5.578125 -2.566406,11.273438 -2.164063,16.800781 0.316407,4.355469 5.0625,6.488282 8.984375,4.554688 2.796875,-1.378906 4.246094,-4.457031 4.238282,-7.574219 -0.0078,-3.148437 0.496093,-6.347656 1.566406,-9.496093 5.207031,-15.339844 21.863281,-23.554688 37.203125,-18.347657 3.148437,1.066407 5.996093,2.617188 8.488281,4.539063 2.46875,1.902344 5.792969,2.625 8.589844,1.246094 z M 37.203125,85.945312 C 40,84.5625 43.324219,85.285156 45.796875,87.1875 c 2.492187,1.921875 5.335937,3.472656 8.484375,4.542969 15.339844,5.207031 32,-3.007813 37.207031,-18.351563 1.066407,-3.144531 1.570313,-6.347656 1.5625,-9.496094 -0.0078,-3.117187 1.445313,-6.191406 4.242188,-7.574218 3.917971,-1.929688 8.664061,0.199218 8.984371,4.558594 0.40235,5.523437 -0.27343,11.222656 -2.16406,16.800781 -7.574218,22.3125 -31.804686,34.261721 -54.117186,26.687501 -5.578125,-1.89453 -10.507813,-4.828126 -14.644532,-8.51172 -3.265624,-2.902344 -2.066406,-7.96875 1.851563,-9.898438 z m 0,0"
       id="path3" />
  </g>
  <path
     style="fill:#ffffff;stroke-width:0.109589"
     d="M 4.6531022,61.961498 C 2.5856652,61.494559 0.95503816,60.055796 0.36723816,58.17992 c -0.576176,-1.838781 -0.45757,-7.600298 0.238008,-11.561644 C 2.6920232,34.733983 9.6942532,24.216826 19.745099,17.870743 29.828098,11.50436 41.838417,9.5921323 53.201047,12.544042 c 3.022656,0.785259 6.001286,1.916623 9.002295,3.419314 0.03893,0.01949 -0.568506,-1.60668 -1.349863,-3.613721 -0.781358,-2.007042 -1.497147,-3.9444407 -1.590641,-4.3053317 -0.238098,-0.919053 -0.145175,-2.711478 0.190028,-3.66554 0.71546,-2.036358 2.558701,-3.69616105 4.705715,-4.23740605 0.975726,-0.245972 2.74752,-0.161043 3.711839,0.177924 1.403715,0.493419 2.681312,1.55387805 3.495886,2.90173505 0.419736,0.694526 6.864493,17.2964017 7.157394,18.4376457 1.356827,5.286687 -1.124276,10.892886 -5.953531,13.45234 -0.966663,0.512322 -17.212081,6.856986 -18.248259,7.126875 -0.805195,0.209728 -2.32795,0.205897 -3.14885,-0.0079 -1.183471,-0.308254 -2.014457,-0.796022 -2.971113,-1.743967 -0.909528,-0.901245 -1.333309,-1.578034 -1.752771,-2.79922 -0.160386,-0.466933 -0.205306,-0.899044 -0.19937,-1.917808 0.0066,-1.132457 0.04651,-1.417659 0.287433,-2.053868 0.41419,-1.093777 0.93403,-1.886247 1.732926,-2.641758 0.909402,-0.860019 1.637223,-1.228236 4.913681,-2.485916 l 2.667731,-1.024038 -0.585539,-0.294755 c -0.988583,-0.497646 -3.11181,-1.298826 -4.503972,-1.699532 -2.94599,-0.847946 -5.898274,-1.209495 -9.059065,-1.109413 -4.403591,0.139432 -8.0658,1.047973 -12.008803,2.979211 -3.036096,1.487043 -5.56811,3.285861 -7.881491,5.599243 -5.282185,5.282184 -8.301468,12.290024 -8.565814,19.88149 -0.03463,0.994521 -0.136698,2.227397 -0.226816,2.739726 -0.531524,3.021751 -2.526448,5.399224 -5.1888928,6.183925 -0.874332,0.257691 -2.322065,0.311536 -3.178082,0.118201 z"
     id="path4" />
  <path
     style="fill:#ffffff;stroke-width:0.109589"
     d="m 18.461321,105.78268 c -1.623281,-0.31463 -3.196973,-1.26554 -4.127634,-2.49414 -0.969502,-1.27988 -0.998847,-1.38484 -3.047471,-10.900167 -1.046609,-4.861224 -1.9562578,-9.22435 -2.0214438,-9.695835 -0.236221,-1.708573 -0.08403,-3.288714 0.494504,-5.134091 1.1676578,-3.724558 4.2978918,-6.737794 8.1157698,-7.812429 1.633233,-0.459714 17.905827,-3.909518 18.723261,-3.969347 2.920325,-0.213747 5.913595,2.013411 6.675597,4.967012 0.222576,0.862732 0.222576,2.393303 0,3.256035 -0.518582,2.010077 -2.151704,3.833365 -4.051081,4.522802 -0.366553,0.133052 -2.438529,0.621008 -4.604392,1.084346 -2.165863,0.463339 -3.979321,0.881158 -4.029907,0.928486 -0.05059,0.04733 0.417908,0.284456 1.041096,0.526953 3.833862,1.491834 7.004767,2.097949 10.996756,2.102017 4.650846,0.0047 8.895493,-0.992284 13.087064,-3.074014 8.078545,-4.012184 13.885809,-11.55329 15.674284,-20.354069 0.318375,-1.566663 0.531341,-3.467185 0.610345,-5.44673 0.108519,-2.719059 0.447372,-4.001213 1.472454,-5.571482 2.32377,-3.559658 7.165154,-4.28585 9.989104,-1.498332 0.76655,0.756654 1.15592,1.404686 1.48518,2.471755 0.17716,0.574157 0.20145,1.062366 0.20145,4.050114 0,3.548407 -0.0684,4.446847 -0.55376,7.270681 -2.31265,13.456058 -10.981542,25.036454 -23.227067,31.028038 -11.205182,5.48256 -24.129345,5.81776 -35.529058,0.92149 -0.506604,-0.2176 -0.934961,-0.37773 -0.951906,-0.35586 -0.01694,0.0219 0.259242,1.37127 0.613748,2.99866 0.588346,2.70087 0.64019,3.0458 0.594471,3.95527 -0.172773,3.437007 -2.890496,6.124207 -6.311296,6.240407 -0.575353,0.0195 -1.169383,0.0116 -1.320068,-0.0176 z"
     id="path5" />
</svg>
