<?xml version="1.0" encoding="UTF-8" standalone="no"?>
<svg
   viewBox="0 0 63.909946 63.898483"
   version="1.1"
   id="svg2"
   width="63.909946"
   height="63.898483"
   xmlns="http://www.w3.org/2000/svg"
   xmlns:svg="http://www.w3.org/2000/svg">
  <path
     style="fill:#ffffff;stroke-width:0.0971102"
     d="m 45.641794,59.916969 v -3.981517 h -2.282089 -2.282089 v -8.150226 c 0,-5.316237 0.03655,-8.412971 0.105098,-8.905851 0.155981,-1.121462 0.511737,-2.138301 1.300816,-3.718049 0.388882,-0.778548 1.37431,-2.81393 2.189839,-4.523068 0.81553,-1.709139 1.609538,-3.293308 1.764465,-3.520374 0.363675,-0.533023 1.126327,-1.293897 1.675956,-1.672053 0.486825,-0.334943 1.778141,-0.974068 1.968054,-0.974068 0.194914,0 0.176962,-11.106134 -0.01914,-11.843036 -0.449432,-1.688818 -1.865525,-3.2735296 -3.617631,-4.0483936 -1.06955,-0.473007 -2.075126,-0.642931 -3.52236,-0.595215 -1.143781,0.03771 -1.4195,0.08098 -2.161789,0.339263 -0.467942,0.162822 -1.095222,0.4431 -1.393956,0.622841 -1.199705,0.721833 -2.280232,1.9718096 -2.722062,3.1489406 -0.172294,0.459027 -0.182352,1.28381 -0.234418,19.221866 -0.05839,20.118722 -0.02836,18.927571 -0.525041,20.824303 -0.219923,0.839844 -0.400646,1.17074 -1.198577,2.194538 -2.779603,3.566411 -7.05651,5.576307 -11.865958,5.576307 -3.2821,0 -6.565361,-1.00813 -9.054753,-2.780275 -1.109497,-0.789825 -2.551008,-2.250719 -3.19382,-3.236763 C 9.8377544,52.769323 9.8551174,52.809903 9.6192674,51.66857 9.1684254,49.486834 9.1320244,48.929875 9.1301544,44.184802 l -0.0018,-4.515946 -0.655493,-0.225488 C 7.1485224,38.987799 5.8293804,38.019524 5.1135464,36.977567 4.7751364,36.484981 1.0090144,28.387874 0.51872138,27.098759 -0.00405662,25.724232 3.8384221e-7,25.806339 3.8384221e-7,16.601281 V 8.0637264 L 2.2578114,8.0376564 4.5156224,8.0115864 4.5409824,4.0057924 4.5663324,-5.6517958e-7 H 11.362966 18.1596 V 4.0300704 8.0601414 h 2.282088 2.282089 v 8.1502266 c 0,5.248553 -0.03698,8.420673 -0.103864,8.909857 -0.1265,0.925184 -0.573096,2.304018 -1.000922,3.090274 -0.174374,0.320463 -1.11909,2.265094 -2.09937,4.321402 -0.980279,2.056307 -1.929623,3.964727 -2.109653,4.240932 -0.688144,1.055761 -2.173057,2.209945 -3.366275,2.616515 l -0.448271,0.15274 0.0018,4.336551 c 0.0018,4.438798 0.05605,5.311238 0.433172,6.968747 0.323426,1.421511 2.023387,3.106097 4.157803,4.120198 3.40001,1.615408 7.575104,1.310407 10.650486,-0.778045 0.729685,-0.495519 1.669676,-1.408691 2.211375,-2.148278 0.381513,-0.520884 0.472225,-0.747347 0.721499,-1.801211 0.08075,-0.341382 0.128001,-5.725286 0.171611,-19.553242 l 0.06018,-19.082145 0.214588,-0.698696 c 0.486804,-1.5850266 1.299048,-2.9297716 2.466627,-4.0837326 1.605704,-1.586977 3.261366,-2.507655 5.567614,-3.096032 1.345317,-0.343222 3.573398,-0.425089 5.014808,-0.18426 3.435762,0.574043 6.287986,2.363166 8.02067,5.03115 0.570385,0.878279 0.87397,1.5836956 1.1533,2.6798586 l 0.23208,0.910722 v 6.093348 6.093349 l 0.31561,0.06219 c 0.17359,0.0342 0.71587,0.260325 1.20508,0.502496 0.95666,0.473572 1.90917,1.261335 2.49132,2.060422 0.18357,0.251979 1.10933,2.162427 2.05724,4.24544 0.94792,2.083012 1.91939,4.202441 2.15884,4.709842 0.23944,0.507401 0.54908,1.337692 0.68809,1.845093 l 0.25273,0.922546 0.034,8.618526 0.034,8.618526 h -2.33635 -2.33635 v 3.981517 3.981516 h -6.797714 -6.79771 z m 9.128351,-1.942203 v -2.039314 h -2.330641 -2.330643 v 2.039314 2.039313 h 2.330643 2.330641 z m 4.54307,-12.648598 -0.0274,-6.724878 -0.2569,-0.631216 c -0.63601,-1.56277 -4.10494,-9.006142 -4.29246,-9.210428 -0.11497,-0.125256 -0.40569,-0.343754 -0.646038,-0.48555 -0.39815,-0.234894 -0.527635,-0.257812 -1.456652,-0.257812 -0.940344,0 -1.055409,0.02102 -1.479289,0.270184 -0.252798,0.148602 -0.577059,0.417351 -0.72058,0.59722 -0.233981,0.29324 -3.899499,7.765441 -4.457362,9.086386 -0.382549,0.905825 -0.431811,1.833351 -0.431811,8.130428 v 5.950544 h 6.897988 6.897984 z M 12.440367,35.763492 c 0.804013,-0.355654 1.020561,-0.677064 2.409168,-3.575792 0.715263,-1.49312 1.682479,-3.502449 2.149367,-4.465175 1.318217,-2.718171 1.195468,-1.79422 1.234963,-9.295869 l 0.03413,-6.482103 H 11.367542 4.4670904 v 6.404491 c 0,4.36859 0.03468,6.568077 0.109095,6.919098 0.09335,0.440339 2.8792,6.703559 4.028624,9.057259 0.427471,0.87534 0.811915,1.238979 1.6116846,1.52446 0.643094,0.229557 1.593078,0.192662 2.223875,-0.08637 z M 13.692553,5.9722784 V 3.8844104 H 11.36191 9.0312654 v 2.087868 2.087868 h 2.3306446 2.330643 z"
     id="path5" />
</svg>
