<svg width="40" height="40" viewBox="0 0 40 40" fill="none" xmlns="http://www.w3.org/2000/svg">
    <path fill-rule="evenodd" clip-rule="evenodd" d="M21.109 2.5a3.626 3.626 0 0 1 3.435 2.485l.083.266.267 1.05.417.15.267.118.266.116.4.184.934-.55a3.638 3.638 0 0 1 3.986.166l.233.184.217.2 1.55 1.55a3.631 3.631 0 0 1 .684 4.17l-.133.25-.567.933.183.4.117.267.117.267.15.417 1.05.267a3.641 3.641 0 0 1 2.702 2.968l.033.266v2.484a3.626 3.626 0 0 1-2.484 3.436l-.267.083-1.05.267-.15.417-.118.267-.116.266-.184.4.567.934a3.638 3.638 0 0 1-.167 3.986l-.183.233-.2.217-1.55 1.55a3.632 3.632 0 0 1-4.17.684l-.25-.133-.933-.567-.4.183-.267.117-.267.117-.417.15-.267 1.05a3.641 3.641 0 0 1-2.968 2.702l-.267.033h-2.484a3.626 3.626 0 0 1-3.435-2.484l-.084-.267-.266-1.05-.417-.15-.267-.118-.267-.116-.4-.184-.934.567a3.638 3.638 0 0 1-3.985-.167l-.233-.183-.217-.2-1.55-1.55a3.631 3.631 0 0 1-.685-4.17l.134-.25.55-.933-.183-.4-.117-.267-.117-.267-.15-.417-1.05-.267a3.641 3.641 0 0 1-2.702-2.968l-.033-.267v-2.484a3.626 3.626 0 0 1 2.485-3.435l.266-.084 1.05-.266.15-.417.118-.267.116-.267.184-.4-.55-.934a3.638 3.638 0 0 1 .166-3.985l.184-.233.2-.217 1.55-1.55a3.631 3.631 0 0 1 4.17-.685l.25.134.933.55.4-.183.267-.117.267-.117.417-.15.267-1.05a3.641 3.641 0 0 1 2.968-2.702l.266-.033h2.484zm0 2.501h-2.201c-.467 0-.867.284-1.034.684l-.05.167-.434 1.717c-.1.434-.433.767-.85.9-.767.234-1.517.55-2.234.918-.334.183-.734.2-1.068.05l-.166-.084-1.518-.917c-.4-.233-.883-.2-1.25.067l-.134.117-1.55 1.55c-.317.317-.417.8-.25 1.218l.083.15.917 1.517c.233.383.233.85.033 1.234a11.88 11.88 0 0 0-.917 2.234c-.117.367-.367.65-.717.8l-.183.067-1.718.434c-.45.117-.767.483-.833.917v2.367c0 .468.283.868.683 1.035l.167.05 1.717.433c.434.1.767.434.9.85.234.768.551 1.518.918 2.235.183.334.2.734.05 1.067l-.083.167-.917 1.517c-.234.4-.2.884.066 1.251l.117.133 1.55 1.551c.318.317.801.417 1.218.25l.15-.083 1.517-.917c.384-.234.85-.234 1.234-.034.717.384 1.451.684 2.235.918.367.116.65.366.8.717l.067.183.433 1.717c.117.45.484.767.917.834h2.368c.467 0 .867-.283 1.034-.7l.05-.167.434-1.717c.1-.434.433-.768.85-.9.767-.234 1.517-.551 2.234-.918.334-.183.734-.2 1.068-.05l.166.083 1.518.918c.4.233.884.2 1.25-.067l.134-.117 1.55-1.55c.317-.317.417-.801.25-1.218l-.083-.15-.917-1.517a1.253 1.253 0 0 1-.033-1.234c.383-.717.683-1.451.917-2.235.117-.367.367-.65.717-.8l.183-.067 1.718-.433c.45-.117.767-.484.834-.917v-2.368c0-.467-.284-.867-.7-1.034l-.168-.05-1.717-.434a1.253 1.253 0 0 1-.9-.85 13.692 13.692 0 0 0-.918-2.234 1.204 1.204 0 0 1-.05-1.068l.084-.166.917-1.518c.233-.4.2-.883-.067-1.25l-.117-.134-1.55-1.55a1.135 1.135 0 0 0-1.218-.25l-.15.083-1.517.917c-.384.233-.85.233-1.234.033a11.88 11.88 0 0 0-2.234-.917 1.268 1.268 0 0 1-.8-.717l-.067-.183-.434-1.718a1.123 1.123 0 0 0-.917-.833h-.167L21.11 5zm-1.1 6.353a8.64 8.64 0 0 1 8.637 8.638 8.64 8.64 0 0 1-8.638 8.637 8.64 8.64 0 0 1-8.637-8.637 8.64 8.64 0 0 1 8.637-8.638zm0 2.501a6.141 6.141 0 0 0-6.137 6.137 6.141 6.141 0 0 0 6.136 6.136 6.141 6.141 0 0 0 6.137-6.136 6.141 6.141 0 0 0-6.137-6.137z" fill="#fff"/>
</svg>
